<mxfile host="app.diagrams.net" modified="2023-04-13T05:27:26.006Z" agent="Mozilla/5.0 (Windows NT 10.0; Win64; x64) AppleWebKit/537.36 (KHTML, like Gecko) Chrome/111.0.0.0 Safari/537.36" etag="rd50FkbP5QeCRONzivrr" version="21.1.5" type="github">
  <diagram name="Page-1" id="IFKmVx4JDvugyrBytJxH">
    <mxGraphModel dx="1434" dy="756" grid="0" gridSize="10" guides="1" tooltips="1" connect="1" arrows="1" fold="1" page="1" pageScale="1" pageWidth="827" pageHeight="1169" math="0" shadow="0">
      <root>
        <mxCell id="0" />
        <mxCell id="1" parent="0" />
        <mxCell id="xowfmCytz58nH9q9fHy0-10" style="edgeStyle=orthogonalEdgeStyle;rounded=0;orthogonalLoop=1;jettySize=auto;html=1;entryX=0.5;entryY=0;entryDx=0;entryDy=0;labelBackgroundColor=none;strokeColor=#E07A5F;fontColor=default;" edge="1" parent="1" source="xowfmCytz58nH9q9fHy0-1" target="xowfmCytz58nH9q9fHy0-3">
          <mxGeometry relative="1" as="geometry" />
        </mxCell>
        <mxCell id="xowfmCytz58nH9q9fHy0-1" value="Calculate amount of breaths" style="rounded=0;whiteSpace=wrap;html=1;labelBackgroundColor=none;fillColor=#F2CC8F;strokeColor=#E07A5F;fontColor=#393C56;" vertex="1" parent="1">
          <mxGeometry x="354" y="110" width="120" height="60" as="geometry" />
        </mxCell>
        <mxCell id="xowfmCytz58nH9q9fHy0-2" value="Bin Divider" style="text;html=1;strokeColor=none;fillColor=none;align=center;verticalAlign=middle;whiteSpace=wrap;rounded=0;fontSize=24;fontStyle=1;labelBackgroundColor=none;fontColor=#393C56;" vertex="1" parent="1">
          <mxGeometry x="339" y="40" width="150" height="30" as="geometry" />
        </mxCell>
        <mxCell id="xowfmCytz58nH9q9fHy0-11" style="edgeStyle=orthogonalEdgeStyle;rounded=0;orthogonalLoop=1;jettySize=auto;html=1;labelBackgroundColor=none;strokeColor=#E07A5F;fontColor=default;" edge="1" parent="1" source="xowfmCytz58nH9q9fHy0-3">
          <mxGeometry relative="1" as="geometry">
            <mxPoint x="414" y="310" as="targetPoint" />
          </mxGeometry>
        </mxCell>
        <mxCell id="xowfmCytz58nH9q9fHy0-3" value="Calculate parts" style="rounded=0;whiteSpace=wrap;html=1;labelBackgroundColor=none;fillColor=#F2CC8F;strokeColor=#E07A5F;fontColor=#393C56;" vertex="1" parent="1">
          <mxGeometry x="354" y="210" width="120" height="60" as="geometry" />
        </mxCell>
        <mxCell id="xowfmCytz58nH9q9fHy0-12" style="edgeStyle=orthogonalEdgeStyle;rounded=0;orthogonalLoop=1;jettySize=auto;html=1;entryX=0.5;entryY=0;entryDx=0;entryDy=0;labelBackgroundColor=none;strokeColor=#E07A5F;fontColor=default;" edge="1" parent="1" source="xowfmCytz58nH9q9fHy0-4" target="xowfmCytz58nH9q9fHy0-8">
          <mxGeometry relative="1" as="geometry" />
        </mxCell>
        <mxCell id="xowfmCytz58nH9q9fHy0-4" value="For part in parts" style="rounded=0;whiteSpace=wrap;html=1;labelBackgroundColor=none;fillColor=#F2CC8F;strokeColor=#E07A5F;fontColor=#393C56;" vertex="1" parent="1">
          <mxGeometry x="354" y="310" width="120" height="60" as="geometry" />
        </mxCell>
        <mxCell id="xowfmCytz58nH9q9fHy0-15" style="edgeStyle=orthogonalEdgeStyle;rounded=0;orthogonalLoop=1;jettySize=auto;html=1;entryX=0;entryY=0.5;entryDx=0;entryDy=0;labelBackgroundColor=none;strokeColor=#E07A5F;fontColor=default;" edge="1" parent="1" source="xowfmCytz58nH9q9fHy0-5" target="xowfmCytz58nH9q9fHy0-6">
          <mxGeometry relative="1" as="geometry" />
        </mxCell>
        <mxCell id="xowfmCytz58nH9q9fHy0-5" value="Create Suffix&lt;br&gt;Create suffix + pao, peso and inspStart strings" style="rounded=0;whiteSpace=wrap;html=1;labelBackgroundColor=none;fillColor=#F2CC8F;strokeColor=#E07A5F;fontColor=#393C56;" vertex="1" parent="1">
          <mxGeometry x="111" y="500" width="120" height="60" as="geometry" />
        </mxCell>
        <mxCell id="xowfmCytz58nH9q9fHy0-16" style="edgeStyle=orthogonalEdgeStyle;rounded=0;orthogonalLoop=1;jettySize=auto;html=1;entryX=0;entryY=0.5;entryDx=0;entryDy=0;labelBackgroundColor=none;strokeColor=#E07A5F;fontColor=default;" edge="1" parent="1" source="xowfmCytz58nH9q9fHy0-6" target="xowfmCytz58nH9q9fHy0-7">
          <mxGeometry relative="1" as="geometry" />
        </mxCell>
        <mxCell id="xowfmCytz58nH9q9fHy0-6" value="Initialize current and next inspiratory start variables" style="rounded=0;whiteSpace=wrap;html=1;labelBackgroundColor=none;fillColor=#F2CC8F;strokeColor=#E07A5F;fontColor=#393C56;" vertex="1" parent="1">
          <mxGeometry x="275" y="500" width="120" height="60" as="geometry" />
        </mxCell>
        <mxCell id="xowfmCytz58nH9q9fHy0-17" style="edgeStyle=orthogonalEdgeStyle;rounded=0;orthogonalLoop=1;jettySize=auto;html=1;entryX=0;entryY=0.5;entryDx=0;entryDy=0;labelBackgroundColor=none;strokeColor=#E07A5F;fontColor=default;" edge="1" parent="1" source="xowfmCytz58nH9q9fHy0-7" target="xowfmCytz58nH9q9fHy0-9">
          <mxGeometry relative="1" as="geometry" />
        </mxCell>
        <mxCell id="xowfmCytz58nH9q9fHy0-7" value="Initialize current and next inspiratory start variables" style="rounded=0;whiteSpace=wrap;html=1;labelBackgroundColor=none;fillColor=#F2CC8F;strokeColor=#E07A5F;fontColor=#393C56;" vertex="1" parent="1">
          <mxGeometry x="431" y="500" width="120" height="60" as="geometry" />
        </mxCell>
        <mxCell id="xowfmCytz58nH9q9fHy0-13" style="edgeStyle=orthogonalEdgeStyle;rounded=0;orthogonalLoop=1;jettySize=auto;html=1;entryX=0;entryY=0.5;entryDx=0;entryDy=0;labelBackgroundColor=none;strokeColor=#E07A5F;fontColor=default;" edge="1" parent="1" source="xowfmCytz58nH9q9fHy0-8" target="xowfmCytz58nH9q9fHy0-5">
          <mxGeometry relative="1" as="geometry">
            <Array as="points">
              <mxPoint x="91" y="480" />
              <mxPoint x="91" y="530" />
            </Array>
          </mxGeometry>
        </mxCell>
        <mxCell id="xowfmCytz58nH9q9fHy0-14" value="No" style="edgeLabel;html=1;align=center;verticalAlign=middle;resizable=0;points=[];labelBackgroundColor=none;fontColor=#393C56;" vertex="1" connectable="0" parent="xowfmCytz58nH9q9fHy0-13">
          <mxGeometry x="0.0331" y="3" relative="1" as="geometry">
            <mxPoint y="-13" as="offset" />
          </mxGeometry>
        </mxCell>
        <mxCell id="xowfmCytz58nH9q9fHy0-23" value="Yes" style="edgeStyle=orthogonalEdgeStyle;rounded=0;orthogonalLoop=1;jettySize=auto;html=1;entryX=1;entryY=0.5;entryDx=0;entryDy=0;labelBackgroundColor=none;strokeColor=#E07A5F;fontColor=default;" edge="1" parent="1" source="xowfmCytz58nH9q9fHy0-8" target="xowfmCytz58nH9q9fHy0-22">
          <mxGeometry x="-0.6304" y="-10" relative="1" as="geometry">
            <Array as="points">
              <mxPoint x="310" y="440" />
              <mxPoint x="310" y="390" />
            </Array>
            <mxPoint as="offset" />
          </mxGeometry>
        </mxCell>
        <mxCell id="xowfmCytz58nH9q9fHy0-8" value="Last Part?" style="rhombus;whiteSpace=wrap;html=1;labelBackgroundColor=none;fillColor=#F2CC8F;strokeColor=#E07A5F;fontColor=#393C56;" vertex="1" parent="1">
          <mxGeometry x="374" y="400" width="80" height="80" as="geometry" />
        </mxCell>
        <mxCell id="xowfmCytz58nH9q9fHy0-19" style="edgeStyle=orthogonalEdgeStyle;rounded=0;orthogonalLoop=1;jettySize=auto;html=1;labelBackgroundColor=none;strokeColor=#E07A5F;fontColor=default;" edge="1" parent="1" source="xowfmCytz58nH9q9fHy0-9">
          <mxGeometry relative="1" as="geometry">
            <mxPoint x="420" y="380" as="targetPoint" />
            <Array as="points">
              <mxPoint x="740" y="530" />
              <mxPoint x="740" y="380" />
            </Array>
          </mxGeometry>
        </mxCell>
        <mxCell id="xowfmCytz58nH9q9fHy0-20" value="Next part" style="edgeLabel;html=1;align=center;verticalAlign=middle;resizable=0;points=[];labelBackgroundColor=none;fontColor=#393C56;" vertex="1" connectable="0" parent="xowfmCytz58nH9q9fHy0-19">
          <mxGeometry x="0.004" y="3" relative="1" as="geometry">
            <mxPoint x="-69" y="-13" as="offset" />
          </mxGeometry>
        </mxCell>
        <mxCell id="xowfmCytz58nH9q9fHy0-9" value="Set bin value as average of breath" style="rounded=0;whiteSpace=wrap;html=1;labelBackgroundColor=none;fillColor=#F2CC8F;strokeColor=#E07A5F;fontColor=#393C56;" vertex="1" parent="1">
          <mxGeometry x="590" y="500" width="120" height="60" as="geometry" />
        </mxCell>
        <mxCell id="xowfmCytz58nH9q9fHy0-22" value="End" style="rounded=0;whiteSpace=wrap;html=1;labelBackgroundColor=none;fillColor=#F2CC8F;strokeColor=#E07A5F;fontColor=#393C56;" vertex="1" parent="1">
          <mxGeometry x="120" y="360" width="120" height="60" as="geometry" />
        </mxCell>
      </root>
    </mxGraphModel>
  </diagram>
</mxfile>
